<svg t="1624363278535" class="icon" viewBox="0 0 1024 1024" version="1.1" xmlns="http://www.w3.org/2000/svg" p-id="3737" width="200" height="200"><path d="M193.431781 1024H100.077138a100.157168 100.157168 0 0 1-100.037123-100.037123V585.937438a100.157168 100.157168 0 0 1 100.037123-100.037123h93.354643a100.157168 100.157168 0 0 1 100.037123 100.037123v338.125476a100.157168 100.157168 0 0 1-100.037123 99.937086zM100.077138 565.930013a20.267521 20.267521 0 0 0-20.007425 20.007425v338.125476a20.267521 20.267521 0 0 0 20.007425 20.007425h93.354643a20.267521 20.267521 0 0 0 20.007425-20.007425v-338.125476a20.267521 20.267521 0 0 0-20.007425-20.007425z" fill="#f4ea2a" p-id="3738"></path><path d="M558.907407 1024h-93.354643a100.157168 100.157168 0 0 1-100.037123-100.037123V346.728669a100.157168 100.157168 0 0 1 100.037123-100.037123h93.354643a100.157168 100.157168 0 0 1 100.037123 100.037123v577.234208a100.157168 100.157168 0 0 1-100.037123 100.037123zM465.552764 326.721244a20.267521 20.267521 0 0 0-20.007425 20.007425v577.234208a20.267521 20.267521 0 0 0 20.007425 20.007424h93.354643a20.267521 20.267521 0 0 0 20.007425-20.007424V346.728669a20.267521 20.267521 0 0 0-20.007425-20.007425z" fill="#f4ea2a" p-id="3739"></path><path d="M923.922862 1024h-93.354643a100.157168 100.157168 0 0 1-100.037123-100.037123V100.037123a100.157168 100.157168 0 0 1 100.037123-100.037123h93.354643a100.157168 100.157168 0 0 1 100.037123 100.037123v823.925754a100.157168 100.157168 0 0 1-100.037123 100.037123zM830.568219 80.029699a20.267521 20.267521 0 0 0-20.007425 20.007424v823.925754a20.267521 20.267521 0 0 0 20.007425 20.007424h93.354643a20.267521 20.267521 0 0 0 20.007425-20.007424V100.037123a20.267521 20.267521 0 0 0-20.007425-20.007424z" fill="#f4ea2a" p-id="3740"></path></svg>