<svg t="1624362084522" class="icon" viewBox="0 0 1024 1024" version="1.1" xmlns="http://www.w3.org/2000/svg" p-id="3304" width="200" height="200"><path d="M511.879588 559.271573a109.875551 109.875551 0 1 1 109.875552-109.855483 109.975894 109.975894 0 0 1-109.875552 109.855483z m0-139.456659a29.601176 29.601176 0 1 0 29.601176 29.601176 29.621244 29.621244 0 0 0-29.601176-29.601176z" fill="#f4ea2a" p-id="3305"></path><path d="M565.8039 741.915845h-0.963292a8.629495 8.629495 0 0 0 3.552141 0.963293l-2.00686-0.72247zM493.496756 86.997354l-0.943223 0.602058-0.561921 0.541852-0.421441 0.401372-0.321097 0.301029a9.392102 9.392102 0 0 0 2.247682-1.846311z" fill="#f4ea2a" p-id="3306"></path><path d="M1020.156864 455.27612c-5.498795-17.600157-16.957962-29.862068-29.641313-42.144047L907.210818 333.138658 656.774836 92.315532l-60.687428-58.399608c-0.762607-0.802744-1.56535-1.605488-2.4283-2.368095C569.23563 10.034297 537.567389-3.110632 504.674963 0.642195a121.45513 121.45513 0 0 0-69.7785 31.046115c-7.244762 6.582499-14.228633 13.506164-21.332916 20.249211l-113.186869 107.487388-148.206565 140.72098-109.715003 104.196139c-6.020578 5.779755-12.342185 11.41903-18.282489 17.359334A79.471632 79.471632 0 0 0 10.465772 516.946908c12.041156 21.393121 35.059833 35.742166 59.22242 38.632043v246.703224c0 35.54148-0.802744 71.183302 0 106.724782a117.60196 117.60196 0 0 0 115.976404 114.712083c16.456247 0.260892 32.952631 0 49.408878 0 55.891034 0 111.822205 0.622126 167.713238 0h3.612347a40.719177 40.719177 0 0 0 40.137188-40.137188V776.213072v-22.376482a28.637883 28.637883 0 0 0 0.963292-3.833102l1.264322-2.227613 0.501715-0.72247c0.86295-0.923155 1.745968-1.846311 2.689191-2.689191l0.381304-0.180618c1.465007-0.682332 2.368094-1.163978 2.950083-1.485076 1.184047-0.28096 2.348025-0.561921 2.84974-0.742538h41.742675c3.371524 0 50.311965-0.341166 64.962039 0-0.883018-0.42144-0.983361-0.662264 0.963292 0h1.444939l1.505144 0.802744h-0.361234l1.28439 0.441509c0.782675 0.42144 1.585419 0.883018 2.227614 1.264322l1.163978 1.143909 1.083704 1.14391c0.622126 0.983361 1.264321 2.006859 1.826242 3.010289 0.341166 1.083704 0.622126 2.187477 0.883018 3.29125V983.561783a40.719177 40.719177 0 0 0 40.137188 40.137188h220.393297c43.468574 0 84.62926-19.827771 106.504028-58.580225 12.643214-22.416619 15.191926-46.418658 15.191925-71.36392V635.592435c0-26.811641 0.602058-53.723626 0.682332-80.615541A71.725154 71.725154 0 0 0 987.806291 543.858893c28.678021-18.924684 42.726036-55.349182 32.350573-88.582773z m-77.364429 23.359843c-0.14048 0.180617-0.260892 0.301029-0.361235 0.321097z m3.471867-2.508574h0.220754-0.361234z m1.163978 0.260891l-0.642195-0.321097c7.124351 0.622126 3.652484 0.782675 0.642195 0.321097zM529.56002 83.264596c-0.622126-0.28096-2.006859-0.822812-4.013719-1.645625a10.255051 10.255051 0 0 1 4.013719 1.645625z m-8.027438-2.669123l-4.334816-0.602058c2.046997-0.040137 3.913376 0.060206 4.254542 0.602058z m-18.362763 1.083704c-0.461578 0.180617-1.806173 0.782675-4.134131 1.826242a7.42538 7.42538 0 0 1 4.053856-1.826242zM76.350965 476.267869v0.100343h-0.401372zM150.022773 913.121019c0.120412 0.782675 0.240823 1.725899 0.421441 2.84974-0.240823-0.160549-0.361235-1.42487-0.421441-2.84974z m1.224184 5.659344l0.802744 2.006859c-0.541852-1.163978-0.923155-1.986791-0.802744-2.087134z m6.361745 11.599647l1.505144 1.886448c-0.14048-0.020069-0.782675-0.86295-1.505144-1.966723z m6.903596 6.542361l0.642195 0.461578s-0.28096-0.180617-0.642195-0.541852z m16.195355 6.301539c1.083704 0 2.006859 0.180617 2.006859 0.341166a5.880098 5.880098 0 0 1-2.006859-0.341166z m-1.42487 0c-3.57221 0-2.006859-0.100343 0 0zM567.569936 741.99612a4.435159 4.435159 0 0 1 1.605488 0.180617 0.541852 0.541852 0 0 1-0.200686 0.441509z m4.314748 2.548711c-1.485076-1.324527-3.190906-3.170838 0 0z m0 0a5.41852 5.41852 0 0 1 1.384733 0.923155c-0.080274 0.160549-0.682332-0.321098-1.364664-0.923155z m291.697011 192.798981l1.083704-0.742538c-0.561921 0.602058-0.983361 0.822812-1.083704 0.742538z m11.920745-13.84733c0.240823-0.541852 0.481646-1.063635 0.702401-1.605487-0.301029 0.943224-0.561921 1.625556-0.782675 1.605487z m2.869809-7.525723l0.441509-3.552141a8.448878 8.448878 0 0 1-0.441509 3.552141z m0.441509-8.428809v4.013719c-0.28096 1.444939-0.581989 2.889878-0.943224 4.314747 0 0.321098-0.742538 2.84974-1.344596 4.896737-0.441509 0.883018-0.86295 1.786105-1.324527 2.649055-1.204116 2.227614-2.608917 4.27461-3.913376 6.42195l-0.28096 0.28096c-0.401372 0.381303-3.512004 3.732758-5.579069 5.719549l-2.00686 1.324528c-2.127271 1.344596-4.374953 2.468437-6.582498 3.712689h-0.361235c-2.528643 0.642195-5.197766 1.364664-7.70634 2.127271l-0.401372 0.120412c-1.725899 0-3.471867 0.160549-5.197766 0.180617h-1.123841c-19.54681 0.220755-39.113689 0-58.6605 0h-126.131112V768.426458v-13.185067a95.847604 95.847604 0 0 0-41.361372-77.585183c-27.313356-19.205644-60.707496-16.054875-92.315531-16.054875-23.721078 0-48.38538-2.006859-72.006115 0.622126-50.352102 5.579069-85.251387 46.37852-85.391867 96.730622V943.424596H185.925488c-1.806173 0-3.612347-0.14048-5.418521-0.180618-2.869809-0.722469-7.605997-2.14734-8.167918-2.287819h-0.301028c-2.227614-1.264321-4.475296-2.388163-6.642705-3.752827l-1.786105-1.123842c-1.605488-1.505145-3.873239-3.792964-4.013719-4.013718l-1.766036-1.886448-0.883018-1.043567c-0.963293-1.545282-1.866379-3.130701-2.006859-3.391592s-1.083704-1.846311-2.00686-3.451799c-0.120412-0.361235-0.28096-0.782675-0.461577-1.28439-0.561921-1.685762-1.063635-3.371524-1.505145-5.097422l-0.602058-2.608918-0.301029-1.585418V907.100441 500.209701c0-28.417129-28.096031-44.773033-52.057932-37.849368l4.013719-3.792964 103.674355-98.436453 251.559824-238.816266q15.834121-15.051445 31.68831-30.102891l2.448368-2.348026c-0.220755 0-0.381303 0.120412-0.461578 0a9.673062 9.673062 0 0 1 1.766037-1.244252c2.548711-2.508574 2.006859-1.745968 0.943224-0.602058 2.006859-1.244253 4.475296-2.689192 4.655913-2.789535l2.548712-1.344595c1.444939-0.682332 2.28782-1.083704 2.528643-1.224185 2.508574-0.561921 5.398452-0.903087 6.56243-1.244253h0.240823c0.802744 0 4.013719-0.301029 6.642705-0.381303 1.665693 0.28096 3.311318 0.602058 4.956942 1.00343s3.632415 0.963293 5.418521 1.545282 2.348025 0.842881 2.628985 0.923155c1.28439 0.802744 2.528643 1.665693 3.351455 2.167408s2.127271 1.364664 3.170838 2.006859l0.481647 0.401372c0.381303 0.341166 0.802744 0.682332 1.204115 1.00343 2.99022 3.170838 6.261401 6.221264 9.592788 9.412171L580.775071 130.44586l108.149652 104.055659L914.656267 451.543361l16.436178 15.814052a38.130328 38.130328 0 0 0-27.594317 1.103773 40.237531 40.237531 0 0 0-24.68437 36.685389v295.008329c0 35.882646 0.622126 71.664949 0 107.387046z" fill="#f4ea2a" p-id="3307"></path></svg>