<svg t="1624361691964" class="icon" viewBox="0 0 1026 1024" version="1.1" xmlns="http://www.w3.org/2000/svg" p-id="2738" width="200" height="200"><path d="M866.132471 322.587824A159.409544 159.409544 0 0 0 772.575587 352.817904l-241.058823-122.884873A40.092944 40.092944 0 0 0 495.152464 301.378657l225.262204 114.846237a160.371774 160.371774 0 1 0 145.777943-93.63707z m0 240.557662a80.185887 80.185887 0 1 1 80.185887-80.185888 80.185887 80.185887 0 0 1-80.185887 80.185888zM309.121206 306.330135a40.092944 40.092944 0 0 0-49.755343 27.203063L150.994636 703.510881a160.371774 160.371774 0 1 0 78.983099 15.616202l106.346533-363.041605a40.092944 40.092944 0 0 0-27.203062-49.755343zM160.376385 943.767846a80.185887 80.185887 0 1 1 80.185887-80.185888 80.185887 80.185887 0 0 1-80.185887 80.185888z" fill="#f4ea2a" p-id="2739"></path><path d="M347.570339 392.910847a196.455424 196.455424 0 1 1 196.455423-196.455423 196.716028 196.716028 0 0 1-196.455423 196.455423z m0-312.72496a116.269536 116.269536 0 1 0 116.269536 116.269537 116.429908 116.429908 0 0 0-116.269536-116.269537z" fill="#f4ea2a" p-id="2740"></path></svg>