<svg t="1624360388878" class="icon" viewBox="0 0 1024 1024" version="1.1" xmlns="http://www.w3.org/2000/svg" p-id="1000" width="200" height="200"><path d="M924 1024H100a100.12 100.12 0 0 1-100-100V100A100.12 100.12 0 0 1 100 0h824a100.12 100.12 0 0 1 100 100v824a100.12 100.12 0 0 1-100 100zM100 80a20.26 20.26 0 0 0-20 20v824a20.26 20.26 0 0 0 20 20h824a20.26 20.26 0 0 0 20-20V100a20.26 20.26 0 0 0-20-20z" fill="#f4ea2a" p-id="1001"></path><path d="M442 711.3h-54.38v-398.6H442a40 40 0 0 0 0-80h-188.6a40 40 0 0 0 0 80h54.3v398.6h-54.38a40 40 0 1 0 0 80H442a40 40 0 1 0 0-80z" fill="#f4ea2a" p-id="1002"></path><path d="M587.36 746.5m-40 0a40 40 0 1 0 80 0 40 40 0 1 0-80 0Z" fill="#f4ea2a" p-id="1003"></path><path d="M703.82 746.5m-40 0a40 40 0 1 0 80 0 40 40 0 1 0-80 0Z" fill="#f4ea2a" p-id="1004"></path><path d="M820.26 746.5m-40 0a40 40 0 1 0 80 0 40 40 0 1 0-80 0Z" fill="#f4ea2a" p-id="1005"></path></svg>