<svg t="1624362354577" class="icon" viewBox="0 0 1024 1024" version="1.1" xmlns="http://www.w3.org/2000/svg" p-id="3513" width="200" height="200"><path d="M982.165557 0H40.405957a40.074877 40.074877 0 0 0 0 80.149753h429.582639V143.287721A440.563156 440.563156 0 0 0 198.54142 893.549524 440.563156 440.563156 0 1 0 821.585526 270.505417a437.256979 437.256979 0 0 0-271.507289-127.217696V80.149753H982.165557a40.074877 40.074877 0 0 0 0-80.149753z m-111.688681 582.027471c0 198.731313-161.68209 360.393365-360.413403 360.393365S149.670108 780.758784 149.670108 582.027471 311.33216 221.614068 510.063473 221.614068s360.413403 161.68209 360.413403 360.413403z" fill="#f4ea2a" p-id="3514"></path><path d="M526.093424 388.20533l-168.214295 192.359408a8.83651 8.83651 0 0 0 6.65243 14.667404h150.280787a8.83651 8.83651 0 0 1 7.874713 12.864036l-80.750876 157.955126a8.83651 8.83651 0 0 0 14.426955 10.018719L664.592197 545.81982a8.83651 8.83651 0 0 0-6.552242-14.767592H495.255806a8.83651 8.83651 0 0 1-8.014975-12.423212l53.600147-121.026128a8.83651 8.83651 0 0 0-14.747554-9.397558z" fill="#f4ea2a" p-id="3515"></path></svg>